<mxfile host="app.diagrams.net" agent="Mozilla/5.0 (Macintosh; Intel Mac OS X 10_15_7) AppleWebKit/537.36 (KHTML, like Gecko) Chrome/128.0.0.0 Safari/537.36" version="24.7.7">
  <diagram id="C5RBs43oDa-KdzZeNtuy" name="Page-1">
    <mxGraphModel dx="3421" dy="2421" grid="1" gridSize="10" guides="1" tooltips="1" connect="1" arrows="1" fold="1" page="1" pageScale="1" pageWidth="827" pageHeight="1169" math="0" shadow="0">
      <root>
        <mxCell id="WIyWlLk6GJQsqaUBKTNV-0" />
        <mxCell id="WIyWlLk6GJQsqaUBKTNV-1" parent="WIyWlLk6GJQsqaUBKTNV-0" />
        <mxCell id="nw4yl1-feg41qcsiGpT8-224" style="edgeStyle=orthogonalEdgeStyle;rounded=0;orthogonalLoop=1;jettySize=auto;html=1;entryX=1;entryY=0.5;entryDx=0;entryDy=0;dashed=1;dashPattern=8 8;endArrow=block;endFill=0;" edge="1" parent="WIyWlLk6GJQsqaUBKTNV-1" source="zkfFHV4jXpPFQw0GAbJ--0" target="nw4yl1-feg41qcsiGpT8-181">
          <mxGeometry relative="1" as="geometry" />
        </mxCell>
        <mxCell id="zkfFHV4jXpPFQw0GAbJ--0" value="DownloadTask" style="swimlane;fontStyle=0;align=center;verticalAlign=top;childLayout=stackLayout;horizontal=1;startSize=26;horizontalStack=0;resizeParent=1;resizeLast=0;collapsible=1;marginBottom=0;rounded=0;shadow=0;strokeWidth=1;" parent="WIyWlLk6GJQsqaUBKTNV-1" vertex="1">
          <mxGeometry x="-413" y="120" width="203" height="190" as="geometry">
            <mxRectangle x="230" y="140" width="160" height="26" as="alternateBounds" />
          </mxGeometry>
        </mxCell>
        <mxCell id="zkfFHV4jXpPFQw0GAbJ--2" value="downloadLog: DonwloadLog" style="text;align=left;verticalAlign=top;spacingLeft=4;spacingRight=4;overflow=hidden;rotatable=0;points=[[0,0.5],[1,0.5]];portConstraint=eastwest;rounded=0;shadow=0;html=0;" parent="zkfFHV4jXpPFQw0GAbJ--0" vertex="1">
          <mxGeometry y="26" width="203" height="26" as="geometry" />
        </mxCell>
        <mxCell id="nw4yl1-feg41qcsiGpT8-221" value="session: URLSession" style="text;align=left;verticalAlign=top;spacingLeft=4;spacingRight=4;overflow=hidden;rotatable=0;points=[[0,0.5],[1,0.5]];portConstraint=eastwest;" vertex="1" parent="zkfFHV4jXpPFQw0GAbJ--0">
          <mxGeometry y="52" width="203" height="26" as="geometry" />
        </mxCell>
        <mxCell id="zkfFHV4jXpPFQw0GAbJ--1" value="delegate: DownloadTaskDelegate?" style="text;align=left;verticalAlign=top;spacingLeft=4;spacingRight=4;overflow=hidden;rotatable=0;points=[[0,0.5],[1,0.5]];portConstraint=eastwest;" parent="zkfFHV4jXpPFQw0GAbJ--0" vertex="1">
          <mxGeometry y="78" width="203" height="26" as="geometry" />
        </mxCell>
        <mxCell id="zkfFHV4jXpPFQw0GAbJ--4" value="" style="line;html=1;strokeWidth=1;align=left;verticalAlign=middle;spacingTop=-1;spacingLeft=3;spacingRight=3;rotatable=0;labelPosition=right;points=[];portConstraint=eastwest;" parent="zkfFHV4jXpPFQw0GAbJ--0" vertex="1">
          <mxGeometry y="104" width="203" height="8" as="geometry" />
        </mxCell>
        <mxCell id="nw4yl1-feg41qcsiGpT8-109" value="resume" style="text;align=left;verticalAlign=top;spacingLeft=4;spacingRight=4;overflow=hidden;rotatable=0;points=[[0,0.5],[1,0.5]];portConstraint=eastwest;rounded=0;shadow=0;html=0;" vertex="1" parent="zkfFHV4jXpPFQw0GAbJ--0">
          <mxGeometry y="112" width="203" height="26" as="geometry" />
        </mxCell>
        <mxCell id="nw4yl1-feg41qcsiGpT8-112" value="cancel" style="text;align=left;verticalAlign=top;spacingLeft=4;spacingRight=4;overflow=hidden;rotatable=0;points=[[0,0.5],[1,0.5]];portConstraint=eastwest;rounded=0;shadow=0;html=0;" vertex="1" parent="zkfFHV4jXpPFQw0GAbJ--0">
          <mxGeometry y="138" width="203" height="26" as="geometry" />
        </mxCell>
        <mxCell id="nw4yl1-feg41qcsiGpT8-111" value="pause" style="text;align=left;verticalAlign=top;spacingLeft=4;spacingRight=4;overflow=hidden;rotatable=0;points=[[0,0.5],[1,0.5]];portConstraint=eastwest;rounded=0;shadow=0;html=0;textOpacity=50;" vertex="1" parent="zkfFHV4jXpPFQw0GAbJ--0">
          <mxGeometry y="164" width="203" height="26" as="geometry" />
        </mxCell>
        <mxCell id="zkfFHV4jXpPFQw0GAbJ--17" value="DownloadManager" style="swimlane;fontStyle=0;align=center;verticalAlign=top;childLayout=stackLayout;horizontal=1;startSize=26;horizontalStack=0;resizeParent=1;resizeLast=0;collapsible=1;marginBottom=0;rounded=0;shadow=0;strokeWidth=1;" parent="WIyWlLk6GJQsqaUBKTNV-1" vertex="1">
          <mxGeometry x="520" y="120" width="270" height="476" as="geometry">
            <mxRectangle x="550" y="140" width="160" height="26" as="alternateBounds" />
          </mxGeometry>
        </mxCell>
        <mxCell id="zkfFHV4jXpPFQw0GAbJ--18" value="configuration: DownloadManagerConfiguration" style="text;align=left;verticalAlign=top;spacingLeft=4;spacingRight=4;overflow=hidden;rotatable=0;points=[[0,0.5],[1,0.5]];portConstraint=eastwest;" parent="zkfFHV4jXpPFQw0GAbJ--17" vertex="1">
          <mxGeometry y="26" width="270" height="26" as="geometry" />
        </mxCell>
        <mxCell id="zkfFHV4jXpPFQw0GAbJ--19" value="taskQueue: DownloadQueue" style="text;align=left;verticalAlign=top;spacingLeft=4;spacingRight=4;overflow=hidden;rotatable=0;points=[[0,0.5],[1,0.5]];portConstraint=eastwest;rounded=0;shadow=0;html=0;" parent="zkfFHV4jXpPFQw0GAbJ--17" vertex="1">
          <mxGeometry y="52" width="270" height="26" as="geometry" />
        </mxCell>
        <mxCell id="nw4yl1-feg41qcsiGpT8-95" value="delegate: DownloadManagerDelegate?" style="text;align=left;verticalAlign=top;spacingLeft=4;spacingRight=4;overflow=hidden;rotatable=0;points=[[0,0.5],[1,0.5]];portConstraint=eastwest;rounded=0;shadow=0;html=0;" vertex="1" parent="zkfFHV4jXpPFQw0GAbJ--17">
          <mxGeometry y="78" width="270" height="26" as="geometry" />
        </mxCell>
        <mxCell id="nw4yl1-feg41qcsiGpT8-125" value="session" style="text;align=left;verticalAlign=top;spacingLeft=4;spacingRight=4;overflow=hidden;rotatable=0;points=[[0,0.5],[1,0.5]];portConstraint=eastwest;rounded=0;shadow=0;html=0;textOpacity=50;" vertex="1" parent="zkfFHV4jXpPFQw0GAbJ--17">
          <mxGeometry y="104" width="270" height="26" as="geometry" />
        </mxCell>
        <mxCell id="nw4yl1-feg41qcsiGpT8-126" value="fileManager" style="text;align=left;verticalAlign=top;spacingLeft=4;spacingRight=4;overflow=hidden;rotatable=0;points=[[0,0.5],[1,0.5]];portConstraint=eastwest;rounded=0;shadow=0;html=0;textOpacity=50;" vertex="1" parent="zkfFHV4jXpPFQw0GAbJ--17">
          <mxGeometry y="130" width="270" height="26" as="geometry" />
        </mxCell>
        <mxCell id="nw4yl1-feg41qcsiGpT8-123" value="downloadingCount: Int" style="text;align=left;verticalAlign=top;spacingLeft=4;spacingRight=4;overflow=hidden;rotatable=0;points=[[0,0.5],[1,0.5]];portConstraint=eastwest;rounded=0;shadow=0;html=0;" vertex="1" parent="zkfFHV4jXpPFQw0GAbJ--17">
          <mxGeometry y="156" width="270" height="26" as="geometry" />
        </mxCell>
        <mxCell id="nw4yl1-feg41qcsiGpT8-124" value="downloadedBytes: Int64" style="text;align=left;verticalAlign=top;spacingLeft=4;spacingRight=4;overflow=hidden;rotatable=0;points=[[0,0.5],[1,0.5]];portConstraint=eastwest;rounded=0;shadow=0;html=0;" vertex="1" parent="zkfFHV4jXpPFQw0GAbJ--17">
          <mxGeometry y="182" width="270" height="26" as="geometry" />
        </mxCell>
        <mxCell id="nw4yl1-feg41qcsiGpT8-122" value="totalBytes: Int64" style="text;align=left;verticalAlign=top;spacingLeft=4;spacingRight=4;overflow=hidden;rotatable=0;points=[[0,0.5],[1,0.5]];portConstraint=eastwest;rounded=0;shadow=0;html=0;" vertex="1" parent="zkfFHV4jXpPFQw0GAbJ--17">
          <mxGeometry y="208" width="270" height="26" as="geometry" />
        </mxCell>
        <mxCell id="nw4yl1-feg41qcsiGpT8-238" value="downloaded: [DownloadTask]" style="text;align=left;verticalAlign=top;spacingLeft=4;spacingRight=4;overflow=hidden;rotatable=0;points=[[0,0.5],[1,0.5]];portConstraint=eastwest;rounded=0;shadow=0;html=0;" vertex="1" parent="zkfFHV4jXpPFQw0GAbJ--17">
          <mxGeometry y="234" width="270" height="26" as="geometry" />
        </mxCell>
        <mxCell id="nw4yl1-feg41qcsiGpT8-237" value="downloading: [DownloadTask]" style="text;align=left;verticalAlign=top;spacingLeft=4;spacingRight=4;overflow=hidden;rotatable=0;points=[[0,0.5],[1,0.5]];portConstraint=eastwest;rounded=0;shadow=0;html=0;" vertex="1" parent="zkfFHV4jXpPFQw0GAbJ--17">
          <mxGeometry y="260" width="270" height="26" as="geometry" />
        </mxCell>
        <mxCell id="zkfFHV4jXpPFQw0GAbJ--23" value="" style="line;html=1;strokeWidth=1;align=left;verticalAlign=middle;spacingTop=-1;spacingLeft=3;spacingRight=3;rotatable=0;labelPosition=right;points=[];portConstraint=eastwest;" parent="zkfFHV4jXpPFQw0GAbJ--17" vertex="1">
          <mxGeometry y="286" width="270" height="8" as="geometry" />
        </mxCell>
        <mxCell id="zkfFHV4jXpPFQw0GAbJ--24" value="+ download(url:String)" style="text;align=left;verticalAlign=top;spacingLeft=4;spacingRight=4;overflow=hidden;rotatable=0;points=[[0,0.5],[1,0.5]];portConstraint=eastwest;" parent="zkfFHV4jXpPFQw0GAbJ--17" vertex="1">
          <mxGeometry y="294" width="270" height="26" as="geometry" />
        </mxCell>
        <mxCell id="nw4yl1-feg41qcsiGpT8-80" value="+ cancel(task)" style="text;align=left;verticalAlign=top;spacingLeft=4;spacingRight=4;overflow=hidden;rotatable=0;points=[[0,0.5],[1,0.5]];portConstraint=eastwest;" vertex="1" parent="zkfFHV4jXpPFQw0GAbJ--17">
          <mxGeometry y="320" width="270" height="26" as="geometry" />
        </mxCell>
        <mxCell id="zkfFHV4jXpPFQw0GAbJ--25" value="+ cancelAll" style="text;align=left;verticalAlign=top;spacingLeft=4;spacingRight=4;overflow=hidden;rotatable=0;points=[[0,0.5],[1,0.5]];portConstraint=eastwest;" parent="zkfFHV4jXpPFQw0GAbJ--17" vertex="1">
          <mxGeometry y="346" width="270" height="26" as="geometry" />
        </mxCell>
        <mxCell id="nw4yl1-feg41qcsiGpT8-79" value="+ resumeAll" style="text;align=left;verticalAlign=top;spacingLeft=4;spacingRight=4;overflow=hidden;rotatable=0;points=[[0,0.5],[1,0.5]];portConstraint=eastwest;" vertex="1" parent="zkfFHV4jXpPFQw0GAbJ--17">
          <mxGeometry y="372" width="270" height="26" as="geometry" />
        </mxCell>
        <mxCell id="nw4yl1-feg41qcsiGpT8-93" value="- reloadAll(from)" style="text;align=left;verticalAlign=top;spacingLeft=4;spacingRight=4;overflow=hidden;rotatable=0;points=[[0,0.5],[1,0.5]];portConstraint=eastwest;" vertex="1" parent="zkfFHV4jXpPFQw0GAbJ--17">
          <mxGeometry y="398" width="270" height="26" as="geometry" />
        </mxCell>
        <mxCell id="nw4yl1-feg41qcsiGpT8-233" value="- saveAll(to)" style="text;align=left;verticalAlign=top;spacingLeft=4;spacingRight=4;overflow=hidden;rotatable=0;points=[[0,0.5],[1,0.5]];portConstraint=eastwest;" vertex="1" parent="zkfFHV4jXpPFQw0GAbJ--17">
          <mxGeometry y="424" width="270" height="26" as="geometry" />
        </mxCell>
        <mxCell id="nw4yl1-feg41qcsiGpT8-94" value="- remove(task)" style="text;align=left;verticalAlign=top;spacingLeft=4;spacingRight=4;overflow=hidden;rotatable=0;points=[[0,0.5],[1,0.5]];portConstraint=eastwest;" vertex="1" parent="zkfFHV4jXpPFQw0GAbJ--17">
          <mxGeometry y="450" width="270" height="26" as="geometry" />
        </mxCell>
        <mxCell id="nw4yl1-feg41qcsiGpT8-0" value="DownloadLog" style="swimlane;fontStyle=0;align=center;verticalAlign=top;childLayout=stackLayout;horizontal=1;startSize=26;horizontalStack=0;resizeParent=1;resizeLast=0;collapsible=1;marginBottom=0;rounded=0;shadow=0;strokeWidth=1;" vertex="1" parent="WIyWlLk6GJQsqaUBKTNV-1">
          <mxGeometry x="-627" y="890" width="160" height="225" as="geometry">
            <mxRectangle x="590" y="410" width="160" height="26" as="alternateBounds" />
          </mxGeometry>
        </mxCell>
        <mxCell id="nw4yl1-feg41qcsiGpT8-1" value="URL: URL" style="text;align=left;verticalAlign=top;spacingLeft=4;spacingRight=4;overflow=hidden;rotatable=0;points=[[0,0.5],[1,0.5]];portConstraint=eastwest;" vertex="1" parent="nw4yl1-feg41qcsiGpT8-0">
          <mxGeometry y="26" width="160" height="26" as="geometry" />
        </mxCell>
        <mxCell id="nw4yl1-feg41qcsiGpT8-2" value="fileSize: Int64" style="text;align=left;verticalAlign=top;spacingLeft=4;spacingRight=4;overflow=hidden;rotatable=0;points=[[0,0.5],[1,0.5]];portConstraint=eastwest;rounded=0;shadow=0;html=0;" vertex="1" parent="nw4yl1-feg41qcsiGpT8-0">
          <mxGeometry y="52" width="160" height="26" as="geometry" />
        </mxCell>
        <mxCell id="nw4yl1-feg41qcsiGpT8-3" value="fileName: String" style="text;align=left;verticalAlign=top;spacingLeft=4;spacingRight=4;overflow=hidden;rotatable=0;points=[[0,0.5],[1,0.5]];portConstraint=eastwest;rounded=0;shadow=0;html=0;" vertex="1" parent="nw4yl1-feg41qcsiGpT8-0">
          <mxGeometry y="78" width="160" height="26" as="geometry" />
        </mxCell>
        <mxCell id="nw4yl1-feg41qcsiGpT8-4" value="state: URLSessionTask.State" style="text;align=left;verticalAlign=top;spacingLeft=4;spacingRight=4;overflow=hidden;rotatable=0;points=[[0,0.5],[1,0.5]];portConstraint=eastwest;rounded=0;shadow=0;html=0;" vertex="1" parent="nw4yl1-feg41qcsiGpT8-0">
          <mxGeometry y="104" width="160" height="26" as="geometry" />
        </mxCell>
        <mxCell id="nw4yl1-feg41qcsiGpT8-11" value="path: String or URL" style="text;align=left;verticalAlign=top;spacingLeft=4;spacingRight=4;overflow=hidden;rotatable=0;points=[[0,0.5],[1,0.5]];portConstraint=eastwest;rounded=0;shadow=0;html=0;" vertex="1" parent="nw4yl1-feg41qcsiGpT8-0">
          <mxGeometry y="130" width="160" height="26" as="geometry" />
        </mxCell>
        <mxCell id="nw4yl1-feg41qcsiGpT8-10" value="startTime: Date" style="text;align=left;verticalAlign=top;spacingLeft=4;spacingRight=4;overflow=hidden;rotatable=0;points=[[0,0.5],[1,0.5]];portConstraint=eastwest;rounded=0;shadow=0;html=0;" vertex="1" parent="nw4yl1-feg41qcsiGpT8-0">
          <mxGeometry y="156" width="160" height="26" as="geometry" />
        </mxCell>
        <mxCell id="nw4yl1-feg41qcsiGpT8-5" value="endTime: Date?" style="text;align=left;verticalAlign=top;spacingLeft=4;spacingRight=4;overflow=hidden;rotatable=0;points=[[0,0.5],[1,0.5]];portConstraint=eastwest;rounded=0;shadow=0;html=0;" vertex="1" parent="nw4yl1-feg41qcsiGpT8-0">
          <mxGeometry y="182" width="160" height="26" as="geometry" />
        </mxCell>
        <mxCell id="nw4yl1-feg41qcsiGpT8-21" value="" style="line;html=1;strokeWidth=1;align=left;verticalAlign=middle;spacingTop=-1;spacingLeft=3;spacingRight=3;rotatable=0;labelPosition=right;points=[];portConstraint=eastwest;" vertex="1" parent="nw4yl1-feg41qcsiGpT8-0">
          <mxGeometry y="208" width="160" height="8" as="geometry" />
        </mxCell>
        <mxCell id="nw4yl1-feg41qcsiGpT8-12" value="DownloadStore" style="swimlane;fontStyle=0;align=center;verticalAlign=top;childLayout=stackLayout;horizontal=1;startSize=26;horizontalStack=0;resizeParent=1;resizeLast=0;collapsible=1;marginBottom=0;rounded=0;shadow=0;strokeWidth=1;" vertex="1" parent="WIyWlLk6GJQsqaUBKTNV-1">
          <mxGeometry x="-437" y="890" width="160" height="210" as="geometry">
            <mxRectangle x="590" y="410" width="160" height="26" as="alternateBounds" />
          </mxGeometry>
        </mxCell>
        <mxCell id="nw4yl1-feg41qcsiGpT8-13" value="+ logs" style="text;align=left;verticalAlign=top;spacingLeft=4;spacingRight=4;overflow=hidden;rotatable=0;points=[[0,0.5],[1,0.5]];portConstraint=eastwest;" vertex="1" parent="nw4yl1-feg41qcsiGpT8-12">
          <mxGeometry y="26" width="160" height="26" as="geometry" />
        </mxCell>
        <mxCell id="nw4yl1-feg41qcsiGpT8-20" value="" style="line;html=1;strokeWidth=1;align=left;verticalAlign=middle;spacingTop=-1;spacingLeft=3;spacingRight=3;rotatable=0;labelPosition=right;points=[];portConstraint=eastwest;" vertex="1" parent="nw4yl1-feg41qcsiGpT8-12">
          <mxGeometry y="52" width="160" height="8" as="geometry" />
        </mxCell>
        <mxCell id="nw4yl1-feg41qcsiGpT8-24" value="+ load" style="text;align=left;verticalAlign=top;spacingLeft=4;spacingRight=4;overflow=hidden;rotatable=0;points=[[0,0.5],[1,0.5]];portConstraint=eastwest;" vertex="1" parent="nw4yl1-feg41qcsiGpT8-12">
          <mxGeometry y="60" width="160" height="26" as="geometry" />
        </mxCell>
        <mxCell id="nw4yl1-feg41qcsiGpT8-25" value="+ save" style="text;align=left;verticalAlign=top;spacingLeft=4;spacingRight=4;overflow=hidden;rotatable=0;points=[[0,0.5],[1,0.5]];portConstraint=eastwest;" vertex="1" parent="nw4yl1-feg41qcsiGpT8-12">
          <mxGeometry y="86" width="160" height="26" as="geometry" />
        </mxCell>
        <mxCell id="nw4yl1-feg41qcsiGpT8-26" value="+ appendLog" style="text;align=left;verticalAlign=top;spacingLeft=4;spacingRight=4;overflow=hidden;rotatable=0;points=[[0,0.5],[1,0.5]];portConstraint=eastwest;" vertex="1" parent="nw4yl1-feg41qcsiGpT8-12">
          <mxGeometry y="112" width="160" height="26" as="geometry" />
        </mxCell>
        <mxCell id="nw4yl1-feg41qcsiGpT8-27" value="+ deleteLog" style="text;align=left;verticalAlign=top;spacingLeft=4;spacingRight=4;overflow=hidden;rotatable=0;points=[[0,0.5],[1,0.5]];portConstraint=eastwest;" vertex="1" parent="nw4yl1-feg41qcsiGpT8-12">
          <mxGeometry y="138" width="160" height="26" as="geometry" />
        </mxCell>
        <mxCell id="nw4yl1-feg41qcsiGpT8-23" value="" style="edgeStyle=orthogonalEdgeStyle;rounded=0;orthogonalLoop=1;jettySize=auto;html=1;endArrow=open;endFill=0;entryX=1.021;entryY=0.095;entryDx=0;entryDy=0;entryPerimeter=0;" edge="1" parent="WIyWlLk6GJQsqaUBKTNV-1" source="nw4yl1-feg41qcsiGpT8-13" target="nw4yl1-feg41qcsiGpT8-0">
          <mxGeometry relative="1" as="geometry" />
        </mxCell>
        <mxCell id="nw4yl1-feg41qcsiGpT8-28" value="DownloadManagerConfiguration" style="swimlane;fontStyle=0;align=center;verticalAlign=top;childLayout=stackLayout;horizontal=1;startSize=26;horizontalStack=0;resizeParent=1;resizeLast=0;collapsible=1;marginBottom=0;rounded=0;shadow=0;strokeWidth=1;" vertex="1" parent="WIyWlLk6GJQsqaUBKTNV-1">
          <mxGeometry x="1020" y="120" width="180" height="216" as="geometry">
            <mxRectangle x="550" y="140" width="160" height="26" as="alternateBounds" />
          </mxGeometry>
        </mxCell>
        <mxCell id="nw4yl1-feg41qcsiGpT8-29" value="maxConcurrentTaskCount" style="text;align=left;verticalAlign=top;spacingLeft=4;spacingRight=4;overflow=hidden;rotatable=0;points=[[0,0.5],[1,0.5]];portConstraint=eastwest;" vertex="1" parent="nw4yl1-feg41qcsiGpT8-28">
          <mxGeometry y="26" width="180" height="26" as="geometry" />
        </mxCell>
        <mxCell id="nw4yl1-feg41qcsiGpT8-30" value="downloadPath" style="text;align=left;verticalAlign=top;spacingLeft=4;spacingRight=4;overflow=hidden;rotatable=0;points=[[0,0.5],[1,0.5]];portConstraint=eastwest;rounded=0;shadow=0;html=0;" vertex="1" parent="nw4yl1-feg41qcsiGpT8-28">
          <mxGeometry y="52" width="180" height="26" as="geometry" />
        </mxCell>
        <mxCell id="nw4yl1-feg41qcsiGpT8-55" value="allowsCellularAccess" style="text;align=left;verticalAlign=top;spacingLeft=4;spacingRight=4;overflow=hidden;rotatable=0;points=[[0,0.5],[1,0.5]];portConstraint=eastwest;rounded=0;shadow=0;html=0;textOpacity=50;" vertex="1" parent="nw4yl1-feg41qcsiGpT8-28">
          <mxGeometry y="78" width="180" height="26" as="geometry" />
        </mxCell>
        <mxCell id="nw4yl1-feg41qcsiGpT8-54" value="requestCachePolicy" style="text;align=left;verticalAlign=top;spacingLeft=4;spacingRight=4;overflow=hidden;rotatable=0;points=[[0,0.5],[1,0.5]];portConstraint=eastwest;rounded=0;shadow=0;html=0;textOpacity=50;" vertex="1" parent="nw4yl1-feg41qcsiGpT8-28">
          <mxGeometry y="104" width="180" height="26" as="geometry" />
        </mxCell>
        <mxCell id="nw4yl1-feg41qcsiGpT8-34" value="" style="line;html=1;strokeWidth=1;align=left;verticalAlign=middle;spacingTop=-1;spacingLeft=3;spacingRight=3;rotatable=0;labelPosition=right;points=[];portConstraint=eastwest;" vertex="1" parent="nw4yl1-feg41qcsiGpT8-28">
          <mxGeometry y="130" width="180" height="8" as="geometry" />
        </mxCell>
        <mxCell id="nw4yl1-feg41qcsiGpT8-43" value="enum URLSessionTask.State" style="swimlane;fontStyle=0;align=center;verticalAlign=top;childLayout=stackLayout;horizontal=1;startSize=26;horizontalStack=0;resizeParent=1;resizeLast=0;collapsible=1;marginBottom=0;rounded=0;shadow=0;strokeWidth=1;" vertex="1" parent="WIyWlLk6GJQsqaUBKTNV-1">
          <mxGeometry x="-850" y="890" width="180" height="216" as="geometry">
            <mxRectangle x="550" y="140" width="160" height="26" as="alternateBounds" />
          </mxGeometry>
        </mxCell>
        <mxCell id="nw4yl1-feg41qcsiGpT8-44" value="running" style="text;align=left;verticalAlign=top;spacingLeft=4;spacingRight=4;overflow=hidden;rotatable=0;points=[[0,0.5],[1,0.5]];portConstraint=eastwest;" vertex="1" parent="nw4yl1-feg41qcsiGpT8-43">
          <mxGeometry y="26" width="180" height="26" as="geometry" />
        </mxCell>
        <mxCell id="nw4yl1-feg41qcsiGpT8-45" value="suspended" style="text;align=left;verticalAlign=top;spacingLeft=4;spacingRight=4;overflow=hidden;rotatable=0;points=[[0,0.5],[1,0.5]];portConstraint=eastwest;rounded=0;shadow=0;html=0;" vertex="1" parent="nw4yl1-feg41qcsiGpT8-43">
          <mxGeometry y="52" width="180" height="26" as="geometry" />
        </mxCell>
        <mxCell id="nw4yl1-feg41qcsiGpT8-46" value="canceling" style="text;align=left;verticalAlign=top;spacingLeft=4;spacingRight=4;overflow=hidden;rotatable=0;points=[[0,0.5],[1,0.5]];portConstraint=eastwest;rounded=0;shadow=0;html=0;" vertex="1" parent="nw4yl1-feg41qcsiGpT8-43">
          <mxGeometry y="78" width="180" height="26" as="geometry" />
        </mxCell>
        <mxCell id="nw4yl1-feg41qcsiGpT8-47" value="completed" style="text;align=left;verticalAlign=top;spacingLeft=4;spacingRight=4;overflow=hidden;rotatable=0;points=[[0,0.5],[1,0.5]];portConstraint=eastwest;rounded=0;shadow=0;html=0;" vertex="1" parent="nw4yl1-feg41qcsiGpT8-43">
          <mxGeometry y="104" width="180" height="26" as="geometry" />
        </mxCell>
        <mxCell id="nw4yl1-feg41qcsiGpT8-49" value="" style="line;html=1;strokeWidth=1;align=left;verticalAlign=middle;spacingTop=-1;spacingLeft=3;spacingRight=3;rotatable=0;labelPosition=right;points=[];portConstraint=eastwest;" vertex="1" parent="nw4yl1-feg41qcsiGpT8-43">
          <mxGeometry y="130" width="180" height="8" as="geometry" />
        </mxCell>
        <mxCell id="nw4yl1-feg41qcsiGpT8-52" value="" style="edgeStyle=orthogonalEdgeStyle;rounded=0;orthogonalLoop=1;jettySize=auto;html=1;entryX=1.005;entryY=0.056;entryDx=0;entryDy=0;entryPerimeter=0;endArrow=open;endFill=0;" edge="1" parent="WIyWlLk6GJQsqaUBKTNV-1" source="nw4yl1-feg41qcsiGpT8-4" target="nw4yl1-feg41qcsiGpT8-43">
          <mxGeometry relative="1" as="geometry" />
        </mxCell>
        <mxCell id="nw4yl1-feg41qcsiGpT8-188" style="edgeStyle=orthogonalEdgeStyle;rounded=0;orthogonalLoop=1;jettySize=auto;html=1;dashed=1;dashPattern=8 8;endArrow=block;endFill=0;exitX=0.5;exitY=0;exitDx=0;exitDy=0;" edge="1" parent="WIyWlLk6GJQsqaUBKTNV-1" source="zkfFHV4jXpPFQw0GAbJ--17">
          <mxGeometry relative="1" as="geometry">
            <mxPoint x="-10" y="-10" as="targetPoint" />
            <Array as="points">
              <mxPoint x="600" y="55" />
              <mxPoint x="-10" y="55" />
            </Array>
          </mxGeometry>
        </mxCell>
        <mxCell id="nw4yl1-feg41qcsiGpT8-64" value="DownloadQueue" style="swimlane;fontStyle=0;align=center;verticalAlign=top;childLayout=stackLayout;horizontal=1;startSize=26;horizontalStack=0;resizeParent=1;resizeLast=0;collapsible=1;marginBottom=0;rounded=0;shadow=0;strokeWidth=1;" vertex="1" parent="WIyWlLk6GJQsqaUBKTNV-1">
          <mxGeometry x="60" y="120" width="180" height="190" as="geometry">
            <mxRectangle x="550" y="140" width="160" height="26" as="alternateBounds" />
          </mxGeometry>
        </mxCell>
        <mxCell id="nw4yl1-feg41qcsiGpT8-65" value="queue: DownloadQueueable" style="text;align=left;verticalAlign=top;spacingLeft=4;spacingRight=4;overflow=hidden;rotatable=0;points=[[0,0.5],[1,0.5]];portConstraint=eastwest;" vertex="1" parent="nw4yl1-feg41qcsiGpT8-64">
          <mxGeometry y="26" width="180" height="26" as="geometry" />
        </mxCell>
        <mxCell id="nw4yl1-feg41qcsiGpT8-116" value="weak manager" style="text;align=left;verticalAlign=top;spacingLeft=4;spacingRight=4;overflow=hidden;rotatable=0;points=[[0,0.5],[1,0.5]];portConstraint=eastwest;" vertex="1" parent="nw4yl1-feg41qcsiGpT8-64">
          <mxGeometry y="52" width="180" height="26" as="geometry" />
        </mxCell>
        <mxCell id="nw4yl1-feg41qcsiGpT8-71" value="" style="line;html=1;strokeWidth=1;align=left;verticalAlign=middle;spacingTop=-1;spacingLeft=3;spacingRight=3;rotatable=0;labelPosition=right;points=[];portConstraint=eastwest;" vertex="1" parent="nw4yl1-feg41qcsiGpT8-64">
          <mxGeometry y="78" width="180" height="8" as="geometry" />
        </mxCell>
        <mxCell id="nw4yl1-feg41qcsiGpT8-69" value="addTask" style="text;align=left;verticalAlign=top;spacingLeft=4;spacingRight=4;overflow=hidden;rotatable=0;points=[[0,0.5],[1,0.5]];portConstraint=eastwest;rounded=0;shadow=0;html=0;" vertex="1" parent="nw4yl1-feg41qcsiGpT8-64">
          <mxGeometry y="86" width="180" height="26" as="geometry" />
        </mxCell>
        <mxCell id="nw4yl1-feg41qcsiGpT8-72" value="cancelTask" style="text;align=left;verticalAlign=top;spacingLeft=4;spacingRight=4;overflow=hidden;rotatable=0;points=[[0,0.5],[1,0.5]];portConstraint=eastwest;rounded=0;shadow=0;html=0;" vertex="1" parent="nw4yl1-feg41qcsiGpT8-64">
          <mxGeometry y="112" width="180" height="26" as="geometry" />
        </mxCell>
        <mxCell id="nw4yl1-feg41qcsiGpT8-73" value="cancelAll" style="text;align=left;verticalAlign=top;spacingLeft=4;spacingRight=4;overflow=hidden;rotatable=0;points=[[0,0.5],[1,0.5]];portConstraint=eastwest;rounded=0;shadow=0;html=0;" vertex="1" parent="nw4yl1-feg41qcsiGpT8-64">
          <mxGeometry y="138" width="180" height="26" as="geometry" />
        </mxCell>
        <mxCell id="nw4yl1-feg41qcsiGpT8-74" value="resumeAll" style="text;align=left;verticalAlign=top;spacingLeft=4;spacingRight=4;overflow=hidden;rotatable=0;points=[[0,0.5],[1,0.5]];portConstraint=eastwest;rounded=0;shadow=0;html=0;" vertex="1" parent="nw4yl1-feg41qcsiGpT8-64">
          <mxGeometry y="164" width="180" height="26" as="geometry" />
        </mxCell>
        <mxCell id="nw4yl1-feg41qcsiGpT8-76" value="" style="edgeStyle=orthogonalEdgeStyle;rounded=0;orthogonalLoop=1;jettySize=auto;html=1;entryX=0.441;entryY=0.006;entryDx=0;entryDy=0;entryPerimeter=0;endArrow=open;endFill=0;" edge="1" parent="WIyWlLk6GJQsqaUBKTNV-1" source="zkfFHV4jXpPFQw0GAbJ--2" target="nw4yl1-feg41qcsiGpT8-0">
          <mxGeometry relative="1" as="geometry" />
        </mxCell>
        <mxCell id="nw4yl1-feg41qcsiGpT8-78" value="Data Model인 Data Log와 Task는 따로 가는게 좋을까..?" style="rounded=1;whiteSpace=wrap;html=1;" vertex="1" parent="WIyWlLk6GJQsqaUBKTNV-1">
          <mxGeometry x="-710" y="660" width="160" height="60" as="geometry" />
        </mxCell>
        <mxCell id="nw4yl1-feg41qcsiGpT8-103" value="" style="edgeStyle=orthogonalEdgeStyle;rounded=0;orthogonalLoop=1;jettySize=auto;html=1;endArrow=block;endFill=0;dashed=1;dashPattern=8 8;entryX=0.499;entryY=1.093;entryDx=0;entryDy=0;entryPerimeter=0;" edge="1" parent="WIyWlLk6GJQsqaUBKTNV-1" source="nw4yl1-feg41qcsiGpT8-96" target="nw4yl1-feg41qcsiGpT8-74">
          <mxGeometry relative="1" as="geometry">
            <mxPoint x="280" y="310" as="targetPoint" />
            <Array as="points">
              <mxPoint x="280" y="330" />
              <mxPoint x="150" y="330" />
            </Array>
          </mxGeometry>
        </mxCell>
        <mxCell id="nw4yl1-feg41qcsiGpT8-227" style="edgeStyle=orthogonalEdgeStyle;rounded=0;orthogonalLoop=1;jettySize=auto;html=1;entryX=0.5;entryY=1;entryDx=0;entryDy=0;dashed=1;dashPattern=8 8;endArrow=open;endFill=0;" edge="1" parent="WIyWlLk6GJQsqaUBKTNV-1" source="nw4yl1-feg41qcsiGpT8-96" target="nw4yl1-feg41qcsiGpT8-205">
          <mxGeometry relative="1" as="geometry">
            <Array as="points">
              <mxPoint x="310" y="610" />
              <mxPoint x="-221" y="610" />
            </Array>
          </mxGeometry>
        </mxCell>
        <mxCell id="nw4yl1-feg41qcsiGpT8-96" value="DictionaryDownloadQueue" style="swimlane;fontStyle=0;align=center;verticalAlign=top;childLayout=stackLayout;horizontal=1;startSize=26;horizontalStack=0;resizeParent=1;resizeLast=0;collapsible=1;marginBottom=0;rounded=0;shadow=0;strokeWidth=1;" vertex="1" parent="WIyWlLk6GJQsqaUBKTNV-1">
          <mxGeometry x="190" y="360" width="240" height="190" as="geometry">
            <mxRectangle x="550" y="140" width="160" height="26" as="alternateBounds" />
          </mxGeometry>
        </mxCell>
        <mxCell id="nw4yl1-feg41qcsiGpT8-97" value="+ queue: [ID(URL): SessionDownloadTask]" style="text;align=left;verticalAlign=top;spacingLeft=4;spacingRight=4;overflow=hidden;rotatable=0;points=[[0,0.5],[1,0.5]];portConstraint=eastwest;" vertex="1" parent="nw4yl1-feg41qcsiGpT8-96">
          <mxGeometry y="26" width="240" height="26" as="geometry" />
        </mxCell>
        <mxCell id="nw4yl1-feg41qcsiGpT8-201" value="- weak manager: DownloadManager?" style="text;align=left;verticalAlign=top;spacingLeft=4;spacingRight=4;overflow=hidden;rotatable=0;points=[[0,0.5],[1,0.5]];portConstraint=eastwest;" vertex="1" parent="nw4yl1-feg41qcsiGpT8-96">
          <mxGeometry y="52" width="240" height="26" as="geometry" />
        </mxCell>
        <mxCell id="nw4yl1-feg41qcsiGpT8-98" value="" style="line;html=1;strokeWidth=1;align=left;verticalAlign=middle;spacingTop=-1;spacingLeft=3;spacingRight=3;rotatable=0;labelPosition=right;points=[];portConstraint=eastwest;" vertex="1" parent="nw4yl1-feg41qcsiGpT8-96">
          <mxGeometry y="78" width="240" height="8" as="geometry" />
        </mxCell>
        <mxCell id="nw4yl1-feg41qcsiGpT8-99" value="+ addTask" style="text;align=left;verticalAlign=top;spacingLeft=4;spacingRight=4;overflow=hidden;rotatable=0;points=[[0,0.5],[1,0.5]];portConstraint=eastwest;rounded=0;shadow=0;html=0;" vertex="1" parent="nw4yl1-feg41qcsiGpT8-96">
          <mxGeometry y="86" width="240" height="26" as="geometry" />
        </mxCell>
        <mxCell id="nw4yl1-feg41qcsiGpT8-100" value="+ cancelTask" style="text;align=left;verticalAlign=top;spacingLeft=4;spacingRight=4;overflow=hidden;rotatable=0;points=[[0,0.5],[1,0.5]];portConstraint=eastwest;rounded=0;shadow=0;html=0;" vertex="1" parent="nw4yl1-feg41qcsiGpT8-96">
          <mxGeometry y="112" width="240" height="26" as="geometry" />
        </mxCell>
        <mxCell id="nw4yl1-feg41qcsiGpT8-101" value="+ cancelAll" style="text;align=left;verticalAlign=top;spacingLeft=4;spacingRight=4;overflow=hidden;rotatable=0;points=[[0,0.5],[1,0.5]];portConstraint=eastwest;rounded=0;shadow=0;html=0;" vertex="1" parent="nw4yl1-feg41qcsiGpT8-96">
          <mxGeometry y="138" width="240" height="26" as="geometry" />
        </mxCell>
        <mxCell id="nw4yl1-feg41qcsiGpT8-102" value="+ resumeAll" style="text;align=left;verticalAlign=top;spacingLeft=4;spacingRight=4;overflow=hidden;rotatable=0;points=[[0,0.5],[1,0.5]];portConstraint=eastwest;rounded=0;shadow=0;html=0;" vertex="1" parent="nw4yl1-feg41qcsiGpT8-96">
          <mxGeometry y="164" width="240" height="26" as="geometry" />
        </mxCell>
        <mxCell id="nw4yl1-feg41qcsiGpT8-105" value="따로 만드는게 좋을지&lt;div&gt;고민&lt;/div&gt;" style="rounded=1;whiteSpace=wrap;html=1;" vertex="1" parent="WIyWlLk6GJQsqaUBKTNV-1">
          <mxGeometry x="-810" y="830" width="120" height="60" as="geometry" />
        </mxCell>
        <mxCell id="nw4yl1-feg41qcsiGpT8-108" style="edgeStyle=orthogonalEdgeStyle;rounded=0;orthogonalLoop=1;jettySize=auto;html=1;endArrow=none;endFill=0;exitX=0.001;exitY=0.044;exitDx=0;exitDy=0;exitPerimeter=0;" edge="1" parent="WIyWlLk6GJQsqaUBKTNV-1" source="zkfFHV4jXpPFQw0GAbJ--17" target="nw4yl1-feg41qcsiGpT8-64">
          <mxGeometry relative="1" as="geometry">
            <Array as="points">
              <mxPoint x="480" y="137" />
              <mxPoint x="480" y="137" />
            </Array>
          </mxGeometry>
        </mxCell>
        <mxCell id="nw4yl1-feg41qcsiGpT8-114" style="edgeStyle=orthogonalEdgeStyle;rounded=0;orthogonalLoop=1;jettySize=auto;html=1;entryX=0.002;entryY=0.066;entryDx=0;entryDy=0;entryPerimeter=0;endArrow=open;endFill=0;" edge="1" parent="WIyWlLk6GJQsqaUBKTNV-1" source="zkfFHV4jXpPFQw0GAbJ--18" target="nw4yl1-feg41qcsiGpT8-28">
          <mxGeometry relative="1" as="geometry" />
        </mxCell>
        <mxCell id="nw4yl1-feg41qcsiGpT8-115" style="edgeStyle=orthogonalEdgeStyle;rounded=0;orthogonalLoop=1;jettySize=auto;html=1;entryX=1.004;entryY=0.066;entryDx=0;entryDy=0;entryPerimeter=0;endArrow=open;endFill=0;dashed=1;dashPattern=8 8;exitX=0;exitY=0.5;exitDx=0;exitDy=0;" edge="1" parent="WIyWlLk6GJQsqaUBKTNV-1" source="nw4yl1-feg41qcsiGpT8-93" target="nw4yl1-feg41qcsiGpT8-12">
          <mxGeometry relative="1" as="geometry">
            <mxPoint x="519" y="351" as="sourcePoint" />
            <Array as="points">
              <mxPoint x="520" y="323" />
              <mxPoint x="440" y="323" />
              <mxPoint x="440" y="904" />
            </Array>
          </mxGeometry>
        </mxCell>
        <mxCell id="nw4yl1-feg41qcsiGpT8-117" value="&lt;b&gt;URLSession&amp;nbsp;&lt;/b&gt;인스턴스가 생성된 후에는 configuration을 변경할 수 없다.&lt;br&gt;새로운 URLSession instance를 생성해야 한다.&lt;div&gt;configuration을 변경할 수 있게 할 것인가?&lt;/div&gt;" style="rounded=1;whiteSpace=wrap;html=1;" vertex="1" parent="WIyWlLk6GJQsqaUBKTNV-1">
          <mxGeometry x="980" y="40" width="260" height="60" as="geometry" />
        </mxCell>
        <mxCell id="nw4yl1-feg41qcsiGpT8-119" style="edgeStyle=orthogonalEdgeStyle;rounded=0;orthogonalLoop=1;jettySize=auto;html=1;entryX=1.012;entryY=0.104;entryDx=0;entryDy=0;entryPerimeter=0;endArrow=open;endFill=0;" edge="1" parent="WIyWlLk6GJQsqaUBKTNV-1" source="nw4yl1-feg41qcsiGpT8-65" target="zkfFHV4jXpPFQw0GAbJ--0">
          <mxGeometry relative="1" as="geometry" />
        </mxCell>
        <mxCell id="nw4yl1-feg41qcsiGpT8-135" style="edgeStyle=orthogonalEdgeStyle;rounded=0;orthogonalLoop=1;jettySize=auto;html=1;dashed=1;dashPattern=8 8;endArrow=none;endFill=0;exitX=0.5;exitY=0;exitDx=0;exitDy=0;" edge="1" parent="WIyWlLk6GJQsqaUBKTNV-1" source="nw4yl1-feg41qcsiGpT8-127">
          <mxGeometry relative="1" as="geometry">
            <mxPoint x="150" y="330" as="targetPoint" />
            <Array as="points">
              <mxPoint x="25" y="330" />
            </Array>
          </mxGeometry>
        </mxCell>
        <mxCell id="nw4yl1-feg41qcsiGpT8-226" style="edgeStyle=orthogonalEdgeStyle;rounded=0;orthogonalLoop=1;jettySize=auto;html=1;entryX=0.5;entryY=1;entryDx=0;entryDy=0;dashed=1;dashPattern=8 8;endArrow=open;endFill=0;" edge="1" parent="WIyWlLk6GJQsqaUBKTNV-1" source="nw4yl1-feg41qcsiGpT8-127" target="nw4yl1-feg41qcsiGpT8-213">
          <mxGeometry relative="1" as="geometry">
            <Array as="points">
              <mxPoint x="25" y="570" />
              <mxPoint x="-418" y="570" />
            </Array>
          </mxGeometry>
        </mxCell>
        <mxCell id="nw4yl1-feg41qcsiGpT8-127" value="OperationDownloadQueue" style="swimlane;fontStyle=0;align=center;verticalAlign=top;childLayout=stackLayout;horizontal=1;startSize=26;horizontalStack=0;resizeParent=1;resizeLast=0;collapsible=1;marginBottom=0;rounded=0;shadow=0;strokeWidth=1;" vertex="1" parent="WIyWlLk6GJQsqaUBKTNV-1">
          <mxGeometry x="-80" y="360" width="210" height="190" as="geometry">
            <mxRectangle x="550" y="140" width="160" height="26" as="alternateBounds" />
          </mxGeometry>
        </mxCell>
        <mxCell id="nw4yl1-feg41qcsiGpT8-128" value="queue: OperationQueue" style="text;align=left;verticalAlign=top;spacingLeft=4;spacingRight=4;overflow=hidden;rotatable=0;points=[[0,0.5],[1,0.5]];portConstraint=eastwest;" vertex="1" parent="nw4yl1-feg41qcsiGpT8-127">
          <mxGeometry y="26" width="210" height="26" as="geometry" />
        </mxCell>
        <mxCell id="nw4yl1-feg41qcsiGpT8-200" value="weak manager: DownloadManager?" style="text;align=left;verticalAlign=top;spacingLeft=4;spacingRight=4;overflow=hidden;rotatable=0;points=[[0,0.5],[1,0.5]];portConstraint=eastwest;" vertex="1" parent="nw4yl1-feg41qcsiGpT8-127">
          <mxGeometry y="52" width="210" height="26" as="geometry" />
        </mxCell>
        <mxCell id="nw4yl1-feg41qcsiGpT8-129" value="" style="line;html=1;strokeWidth=1;align=left;verticalAlign=middle;spacingTop=-1;spacingLeft=3;spacingRight=3;rotatable=0;labelPosition=right;points=[];portConstraint=eastwest;" vertex="1" parent="nw4yl1-feg41qcsiGpT8-127">
          <mxGeometry y="78" width="210" height="8" as="geometry" />
        </mxCell>
        <mxCell id="nw4yl1-feg41qcsiGpT8-130" value="+ addTask" style="text;align=left;verticalAlign=top;spacingLeft=4;spacingRight=4;overflow=hidden;rotatable=0;points=[[0,0.5],[1,0.5]];portConstraint=eastwest;rounded=0;shadow=0;html=0;" vertex="1" parent="nw4yl1-feg41qcsiGpT8-127">
          <mxGeometry y="86" width="210" height="26" as="geometry" />
        </mxCell>
        <mxCell id="nw4yl1-feg41qcsiGpT8-131" value="+ cancelTask" style="text;align=left;verticalAlign=top;spacingLeft=4;spacingRight=4;overflow=hidden;rotatable=0;points=[[0,0.5],[1,0.5]];portConstraint=eastwest;rounded=0;shadow=0;html=0;" vertex="1" parent="nw4yl1-feg41qcsiGpT8-127">
          <mxGeometry y="112" width="210" height="26" as="geometry" />
        </mxCell>
        <mxCell id="nw4yl1-feg41qcsiGpT8-132" value="+ cancelAll" style="text;align=left;verticalAlign=top;spacingLeft=4;spacingRight=4;overflow=hidden;rotatable=0;points=[[0,0.5],[1,0.5]];portConstraint=eastwest;rounded=0;shadow=0;html=0;" vertex="1" parent="nw4yl1-feg41qcsiGpT8-127">
          <mxGeometry y="138" width="210" height="26" as="geometry" />
        </mxCell>
        <mxCell id="nw4yl1-feg41qcsiGpT8-133" value="+ resumeAll" style="text;align=left;verticalAlign=top;spacingLeft=4;spacingRight=4;overflow=hidden;rotatable=0;points=[[0,0.5],[1,0.5]];portConstraint=eastwest;rounded=0;shadow=0;html=0;" vertex="1" parent="nw4yl1-feg41qcsiGpT8-127">
          <mxGeometry y="164" width="210" height="26" as="geometry" />
        </mxCell>
        <mxCell id="nw4yl1-feg41qcsiGpT8-239" style="edgeStyle=orthogonalEdgeStyle;rounded=0;orthogonalLoop=1;jettySize=auto;html=1;entryX=0.5;entryY=1;entryDx=0;entryDy=0;dashed=1;dashPattern=8 8;endArrow=block;endFill=0;" edge="1" parent="WIyWlLk6GJQsqaUBKTNV-1" source="nw4yl1-feg41qcsiGpT8-136" target="nw4yl1-feg41qcsiGpT8-189">
          <mxGeometry relative="1" as="geometry">
            <Array as="points">
              <mxPoint x="1330" y="800" />
              <mxPoint x="1110" y="800" />
            </Array>
          </mxGeometry>
        </mxCell>
        <mxCell id="nw4yl1-feg41qcsiGpT8-136" value="FloatingButton" style="swimlane;fontStyle=0;align=center;verticalAlign=top;childLayout=stackLayout;horizontal=1;startSize=26;horizontalStack=0;resizeParent=1;resizeLast=0;collapsible=1;marginBottom=0;rounded=0;shadow=0;strokeWidth=1;" vertex="1" parent="WIyWlLk6GJQsqaUBKTNV-1">
          <mxGeometry x="1250" y="920" width="160" height="210" as="geometry">
            <mxRectangle x="590" y="410" width="160" height="26" as="alternateBounds" />
          </mxGeometry>
        </mxCell>
        <mxCell id="nw4yl1-feg41qcsiGpT8-137" value="+ viewModel: FloatingButtonViewModel" style="text;align=left;verticalAlign=top;spacingLeft=4;spacingRight=4;overflow=hidden;rotatable=0;points=[[0,0.5],[1,0.5]];portConstraint=eastwest;" vertex="1" parent="nw4yl1-feg41qcsiGpT8-136">
          <mxGeometry y="26" width="160" height="26" as="geometry" />
        </mxCell>
        <mxCell id="nw4yl1-feg41qcsiGpT8-138" value="" style="line;html=1;strokeWidth=1;align=left;verticalAlign=middle;spacingTop=-1;spacingLeft=3;spacingRight=3;rotatable=0;labelPosition=right;points=[];portConstraint=eastwest;" vertex="1" parent="nw4yl1-feg41qcsiGpT8-136">
          <mxGeometry y="52" width="160" height="8" as="geometry" />
        </mxCell>
        <mxCell id="nw4yl1-feg41qcsiGpT8-143" value="FloatingButtonViewModel" style="swimlane;fontStyle=0;align=center;verticalAlign=top;childLayout=stackLayout;horizontal=1;startSize=26;horizontalStack=0;resizeParent=1;resizeLast=0;collapsible=1;marginBottom=0;rounded=0;shadow=0;strokeWidth=1;" vertex="1" parent="WIyWlLk6GJQsqaUBKTNV-1">
          <mxGeometry x="1050" y="920" width="160" height="110" as="geometry">
            <mxRectangle x="590" y="410" width="160" height="26" as="alternateBounds" />
          </mxGeometry>
        </mxCell>
        <mxCell id="nw4yl1-feg41qcsiGpT8-144" value="+ totalDownloadCount" style="text;align=left;verticalAlign=top;spacingLeft=4;spacingRight=4;overflow=hidden;rotatable=0;points=[[0,0.5],[1,0.5]];portConstraint=eastwest;" vertex="1" parent="nw4yl1-feg41qcsiGpT8-143">
          <mxGeometry y="26" width="160" height="26" as="geometry" />
        </mxCell>
        <mxCell id="nw4yl1-feg41qcsiGpT8-150" value="+ progress" style="text;align=left;verticalAlign=top;spacingLeft=4;spacingRight=4;overflow=hidden;rotatable=0;points=[[0,0.5],[1,0.5]];portConstraint=eastwest;" vertex="1" parent="nw4yl1-feg41qcsiGpT8-143">
          <mxGeometry y="52" width="160" height="26" as="geometry" />
        </mxCell>
        <mxCell id="nw4yl1-feg41qcsiGpT8-145" value="" style="line;html=1;strokeWidth=1;align=left;verticalAlign=middle;spacingTop=-1;spacingLeft=3;spacingRight=3;rotatable=0;labelPosition=right;points=[];portConstraint=eastwest;" vertex="1" parent="nw4yl1-feg41qcsiGpT8-143">
          <mxGeometry y="78" width="160" height="8" as="geometry" />
        </mxCell>
        <mxCell id="nw4yl1-feg41qcsiGpT8-151" value="Alert" style="swimlane;fontStyle=0;align=center;verticalAlign=top;childLayout=stackLayout;horizontal=1;startSize=26;horizontalStack=0;resizeParent=1;resizeLast=0;collapsible=1;marginBottom=0;rounded=0;shadow=0;strokeWidth=1;" vertex="1" parent="WIyWlLk6GJQsqaUBKTNV-1">
          <mxGeometry x="520" y="1340" width="160" height="210" as="geometry">
            <mxRectangle x="590" y="410" width="160" height="26" as="alternateBounds" />
          </mxGeometry>
        </mxCell>
        <mxCell id="nw4yl1-feg41qcsiGpT8-152" value="viewModel" style="text;align=left;verticalAlign=top;spacingLeft=4;spacingRight=4;overflow=hidden;rotatable=0;points=[[0,0.5],[1,0.5]];portConstraint=eastwest;" vertex="1" parent="nw4yl1-feg41qcsiGpT8-151">
          <mxGeometry y="26" width="160" height="26" as="geometry" />
        </mxCell>
        <mxCell id="nw4yl1-feg41qcsiGpT8-153" value="" style="line;html=1;strokeWidth=1;align=left;verticalAlign=middle;spacingTop=-1;spacingLeft=3;spacingRight=3;rotatable=0;labelPosition=right;points=[];portConstraint=eastwest;" vertex="1" parent="nw4yl1-feg41qcsiGpT8-151">
          <mxGeometry y="52" width="160" height="8" as="geometry" />
        </mxCell>
        <mxCell id="nw4yl1-feg41qcsiGpT8-154" value="DownloadError" style="swimlane;fontStyle=0;align=center;verticalAlign=top;childLayout=stackLayout;horizontal=1;startSize=26;horizontalStack=0;resizeParent=1;resizeLast=0;collapsible=1;marginBottom=0;rounded=0;shadow=0;strokeWidth=1;" vertex="1" parent="WIyWlLk6GJQsqaUBKTNV-1">
          <mxGeometry x="-150" y="1090" width="160" height="210" as="geometry">
            <mxRectangle x="590" y="410" width="160" height="26" as="alternateBounds" />
          </mxGeometry>
        </mxCell>
        <mxCell id="nw4yl1-feg41qcsiGpT8-155" value="invalidURL" style="text;align=left;verticalAlign=top;spacingLeft=4;spacingRight=4;overflow=hidden;rotatable=0;points=[[0,0.5],[1,0.5]];portConstraint=eastwest;" vertex="1" parent="nw4yl1-feg41qcsiGpT8-154">
          <mxGeometry y="26" width="160" height="26" as="geometry" />
        </mxCell>
        <mxCell id="nw4yl1-feg41qcsiGpT8-229" value="네트워크 연결 안됨" style="text;align=left;verticalAlign=top;spacingLeft=4;spacingRight=4;overflow=hidden;rotatable=0;points=[[0,0.5],[1,0.5]];portConstraint=eastwest;" vertex="1" parent="nw4yl1-feg41qcsiGpT8-154">
          <mxGeometry y="52" width="160" height="26" as="geometry" />
        </mxCell>
        <mxCell id="nw4yl1-feg41qcsiGpT8-230" value="용량 부족" style="text;align=left;verticalAlign=top;spacingLeft=4;spacingRight=4;overflow=hidden;rotatable=0;points=[[0,0.5],[1,0.5]];portConstraint=eastwest;" vertex="1" parent="nw4yl1-feg41qcsiGpT8-154">
          <mxGeometry y="78" width="160" height="26" as="geometry" />
        </mxCell>
        <mxCell id="nw4yl1-feg41qcsiGpT8-156" value="" style="line;html=1;strokeWidth=1;align=left;verticalAlign=middle;spacingTop=-1;spacingLeft=3;spacingRight=3;rotatable=0;labelPosition=right;points=[];portConstraint=eastwest;" vertex="1" parent="nw4yl1-feg41qcsiGpT8-154">
          <mxGeometry y="104" width="160" height="8" as="geometry" />
        </mxCell>
        <mxCell id="nw4yl1-feg41qcsiGpT8-157" value="DownloadListViewController" style="swimlane;fontStyle=0;align=center;verticalAlign=top;childLayout=stackLayout;horizontal=1;startSize=26;horizontalStack=0;resizeParent=1;resizeLast=0;collapsible=1;marginBottom=0;rounded=0;shadow=0;strokeWidth=1;" vertex="1" parent="WIyWlLk6GJQsqaUBKTNV-1">
          <mxGeometry x="575" y="905" width="245" height="210" as="geometry">
            <mxRectangle x="590" y="410" width="160" height="26" as="alternateBounds" />
          </mxGeometry>
        </mxCell>
        <mxCell id="nw4yl1-feg41qcsiGpT8-235" value="downloadManager: DownloadManager" style="text;align=left;verticalAlign=top;spacingLeft=4;spacingRight=4;overflow=hidden;rotatable=0;points=[[0,0.5],[1,0.5]];portConstraint=eastwest;" vertex="1" parent="nw4yl1-feg41qcsiGpT8-157">
          <mxGeometry y="26" width="245" height="26" as="geometry" />
        </mxCell>
        <mxCell id="nw4yl1-feg41qcsiGpT8-160" value="tabView" style="text;align=left;verticalAlign=top;spacingLeft=4;spacingRight=4;overflow=hidden;rotatable=0;points=[[0,0.5],[1,0.5]];portConstraint=eastwest;" vertex="1" parent="nw4yl1-feg41qcsiGpT8-157">
          <mxGeometry y="52" width="245" height="26" as="geometry" />
        </mxCell>
        <mxCell id="nw4yl1-feg41qcsiGpT8-158" value="tableView" style="text;align=left;verticalAlign=top;spacingLeft=4;spacingRight=4;overflow=hidden;rotatable=0;points=[[0,0.5],[1,0.5]];portConstraint=eastwest;" vertex="1" parent="nw4yl1-feg41qcsiGpT8-157">
          <mxGeometry y="78" width="245" height="26" as="geometry" />
        </mxCell>
        <mxCell id="nw4yl1-feg41qcsiGpT8-159" value="" style="line;html=1;strokeWidth=1;align=left;verticalAlign=middle;spacingTop=-1;spacingLeft=3;spacingRight=3;rotatable=0;labelPosition=right;points=[];portConstraint=eastwest;" vertex="1" parent="nw4yl1-feg41qcsiGpT8-157">
          <mxGeometry y="104" width="245" height="8" as="geometry" />
        </mxCell>
        <mxCell id="nw4yl1-feg41qcsiGpT8-161" value="DownloadTaskDelegate" style="swimlane;fontStyle=0;align=center;verticalAlign=top;childLayout=stackLayout;horizontal=1;startSize=26;horizontalStack=0;resizeParent=1;resizeLast=0;collapsible=1;marginBottom=0;rounded=0;shadow=0;strokeWidth=1;" vertex="1" parent="WIyWlLk6GJQsqaUBKTNV-1">
          <mxGeometry x="-130" y="-200" width="203" height="190" as="geometry">
            <mxRectangle x="230" y="140" width="160" height="26" as="alternateBounds" />
          </mxGeometry>
        </mxCell>
        <mxCell id="nw4yl1-feg41qcsiGpT8-165" value="" style="line;html=1;strokeWidth=1;align=left;verticalAlign=middle;spacingTop=-1;spacingLeft=3;spacingRight=3;rotatable=0;labelPosition=right;points=[];portConstraint=eastwest;" vertex="1" parent="nw4yl1-feg41qcsiGpT8-161">
          <mxGeometry y="26" width="203" height="8" as="geometry" />
        </mxCell>
        <mxCell id="nw4yl1-feg41qcsiGpT8-166" value="didCompleteWithError" style="text;align=left;verticalAlign=top;spacingLeft=4;spacingRight=4;overflow=hidden;rotatable=0;points=[[0,0.5],[1,0.5]];portConstraint=eastwest;rounded=0;shadow=0;html=0;" vertex="1" parent="nw4yl1-feg41qcsiGpT8-161">
          <mxGeometry y="34" width="203" height="26" as="geometry" />
        </mxCell>
        <mxCell id="nw4yl1-feg41qcsiGpT8-167" value="didDownloadBytes" style="text;align=left;verticalAlign=top;spacingLeft=4;spacingRight=4;overflow=hidden;rotatable=0;points=[[0,0.5],[1,0.5]];portConstraint=eastwest;rounded=0;shadow=0;html=0;" vertex="1" parent="nw4yl1-feg41qcsiGpT8-161">
          <mxGeometry y="60" width="203" height="26" as="geometry" />
        </mxCell>
        <mxCell id="nw4yl1-feg41qcsiGpT8-186" value="didFinishDownloadingTo" style="text;align=left;verticalAlign=top;spacingLeft=4;spacingRight=4;overflow=hidden;rotatable=0;points=[[0,0.5],[1,0.5]];portConstraint=eastwest;rounded=0;shadow=0;html=0;" vertex="1" parent="nw4yl1-feg41qcsiGpT8-161">
          <mxGeometry y="86" width="203" height="26" as="geometry" />
        </mxCell>
        <mxCell id="nw4yl1-feg41qcsiGpT8-171" value="URLSessionTaskDelegate" style="swimlane;fontStyle=0;align=center;verticalAlign=top;childLayout=stackLayout;horizontal=1;startSize=26;horizontalStack=0;resizeParent=1;resizeLast=0;collapsible=1;marginBottom=0;rounded=0;shadow=0;strokeWidth=1;" vertex="1" parent="WIyWlLk6GJQsqaUBKTNV-1">
          <mxGeometry x="-717" y="10" width="280" height="70" as="geometry">
            <mxRectangle x="230" y="140" width="160" height="26" as="alternateBounds" />
          </mxGeometry>
        </mxCell>
        <mxCell id="nw4yl1-feg41qcsiGpT8-175" value="" style="line;html=1;strokeWidth=1;align=left;verticalAlign=middle;spacingTop=-1;spacingLeft=3;spacingRight=3;rotatable=0;labelPosition=right;points=[];portConstraint=eastwest;" vertex="1" parent="nw4yl1-feg41qcsiGpT8-171">
          <mxGeometry y="26" width="280" height="8" as="geometry" />
        </mxCell>
        <mxCell id="nw4yl1-feg41qcsiGpT8-176" value="urlSession(session:task:didCompleteWithError:) " style="text;align=left;verticalAlign=top;spacingLeft=4;spacingRight=4;overflow=hidden;rotatable=0;points=[[0,0.5],[1,0.5]];portConstraint=eastwest;rounded=0;shadow=0;html=0;" vertex="1" parent="nw4yl1-feg41qcsiGpT8-171">
          <mxGeometry y="34" width="280" height="26" as="geometry" />
        </mxCell>
        <mxCell id="nw4yl1-feg41qcsiGpT8-179" value="URLSessionTaskDelegate" style="swimlane;fontStyle=0;align=center;verticalAlign=top;childLayout=stackLayout;horizontal=1;startSize=26;horizontalStack=0;resizeParent=1;resizeLast=0;collapsible=1;marginBottom=0;rounded=0;shadow=0;strokeWidth=1;" vertex="1" parent="WIyWlLk6GJQsqaUBKTNV-1">
          <mxGeometry x="-997" y="-90" width="560" height="86" as="geometry">
            <mxRectangle x="230" y="140" width="160" height="26" as="alternateBounds" />
          </mxGeometry>
        </mxCell>
        <mxCell id="nw4yl1-feg41qcsiGpT8-180" value="" style="line;html=1;strokeWidth=1;align=left;verticalAlign=middle;spacingTop=-1;spacingLeft=3;spacingRight=3;rotatable=0;labelPosition=right;points=[];portConstraint=eastwest;" vertex="1" parent="nw4yl1-feg41qcsiGpT8-179">
          <mxGeometry y="26" width="560" height="8" as="geometry" />
        </mxCell>
        <mxCell id="nw4yl1-feg41qcsiGpT8-181" value="urlSession(session:downloadTask:didWriteData:totalBytesWritten:totalBytesExpectedToWrite:)" style="text;align=left;verticalAlign=top;spacingLeft=4;spacingRight=4;overflow=hidden;rotatable=0;points=[[0,0.5],[1,0.5]];portConstraint=eastwest;rounded=0;shadow=0;html=0;" vertex="1" parent="nw4yl1-feg41qcsiGpT8-179">
          <mxGeometry y="34" width="560" height="26" as="geometry" />
        </mxCell>
        <mxCell id="nw4yl1-feg41qcsiGpT8-182" value="urlSession(session:downloadTask:didFinishDownloadingTo:)" style="text;align=left;verticalAlign=top;spacingLeft=4;spacingRight=4;overflow=hidden;rotatable=0;points=[[0,0.5],[1,0.5]];portConstraint=eastwest;rounded=0;shadow=0;html=0;" vertex="1" parent="nw4yl1-feg41qcsiGpT8-179">
          <mxGeometry y="60" width="560" height="26" as="geometry" />
        </mxCell>
        <mxCell id="nw4yl1-feg41qcsiGpT8-187" style="edgeStyle=orthogonalEdgeStyle;rounded=0;orthogonalLoop=1;jettySize=auto;html=1;endArrow=open;endFill=0;" edge="1" parent="WIyWlLk6GJQsqaUBKTNV-1" source="zkfFHV4jXpPFQw0GAbJ--1">
          <mxGeometry relative="1" as="geometry">
            <mxPoint x="-50" y="-10" as="targetPoint" />
            <Array as="points">
              <mxPoint x="-50" y="211" />
              <mxPoint x="-50" y="-10" />
            </Array>
          </mxGeometry>
        </mxCell>
        <mxCell id="nw4yl1-feg41qcsiGpT8-189" value="DownloadManagerDelegate" style="swimlane;fontStyle=0;align=center;verticalAlign=top;childLayout=stackLayout;horizontal=1;startSize=26;horizontalStack=0;resizeParent=1;resizeLast=0;collapsible=1;marginBottom=0;rounded=0;shadow=0;strokeWidth=1;" vertex="1" parent="WIyWlLk6GJQsqaUBKTNV-1">
          <mxGeometry x="1020" y="420" width="180" height="190" as="geometry">
            <mxRectangle x="230" y="140" width="160" height="26" as="alternateBounds" />
          </mxGeometry>
        </mxCell>
        <mxCell id="nw4yl1-feg41qcsiGpT8-190" value="" style="line;html=1;strokeWidth=1;align=left;verticalAlign=middle;spacingTop=-1;spacingLeft=3;spacingRight=3;rotatable=0;labelPosition=right;points=[];portConstraint=eastwest;" vertex="1" parent="nw4yl1-feg41qcsiGpT8-189">
          <mxGeometry y="26" width="180" height="8" as="geometry" />
        </mxCell>
        <mxCell id="nw4yl1-feg41qcsiGpT8-199" value="didStartDownload" style="text;align=left;verticalAlign=top;spacingLeft=4;spacingRight=4;overflow=hidden;rotatable=0;points=[[0,0.5],[1,0.5]];portConstraint=eastwest;rounded=0;shadow=0;html=0;" vertex="1" parent="nw4yl1-feg41qcsiGpT8-189">
          <mxGeometry y="34" width="180" height="26" as="geometry" />
        </mxCell>
        <mxCell id="nw4yl1-feg41qcsiGpT8-191" value="didTotalDownloadBytes" style="text;align=left;verticalAlign=top;spacingLeft=4;spacingRight=4;overflow=hidden;rotatable=0;points=[[0,0.5],[1,0.5]];portConstraint=eastwest;rounded=0;shadow=0;html=0;" vertex="1" parent="nw4yl1-feg41qcsiGpT8-189">
          <mxGeometry y="60" width="180" height="26" as="geometry" />
        </mxCell>
        <mxCell id="nw4yl1-feg41qcsiGpT8-193" value="didCompleteWithError" style="text;align=left;verticalAlign=top;spacingLeft=4;spacingRight=4;overflow=hidden;rotatable=0;points=[[0,0.5],[1,0.5]];portConstraint=eastwest;rounded=0;shadow=0;html=0;" vertex="1" parent="nw4yl1-feg41qcsiGpT8-189">
          <mxGeometry y="86" width="180" height="26" as="geometry" />
        </mxCell>
        <mxCell id="nw4yl1-feg41qcsiGpT8-202" style="edgeStyle=orthogonalEdgeStyle;rounded=0;orthogonalLoop=1;jettySize=auto;html=1;entryX=0.005;entryY=0.08;entryDx=0;entryDy=0;entryPerimeter=0;endArrow=open;endFill=0;" edge="1" parent="WIyWlLk6GJQsqaUBKTNV-1" source="nw4yl1-feg41qcsiGpT8-95" target="nw4yl1-feg41qcsiGpT8-189">
          <mxGeometry relative="1" as="geometry" />
        </mxCell>
        <mxCell id="nw4yl1-feg41qcsiGpT8-204" value="OperationQueue는 task가 Operation이어야 함..." style="rounded=1;whiteSpace=wrap;html=1;" vertex="1" parent="WIyWlLk6GJQsqaUBKTNV-1">
          <mxGeometry x="-390" y="585" width="120" height="60" as="geometry" />
        </mxCell>
        <mxCell id="nw4yl1-feg41qcsiGpT8-205" value="SessionDownloadTask" style="swimlane;fontStyle=0;align=center;verticalAlign=top;childLayout=stackLayout;horizontal=1;startSize=26;horizontalStack=0;resizeParent=1;resizeLast=0;collapsible=1;marginBottom=0;rounded=0;shadow=0;strokeWidth=1;" vertex="1" parent="WIyWlLk6GJQsqaUBKTNV-1">
          <mxGeometry x="-323" y="360" width="203" height="190" as="geometry">
            <mxRectangle x="230" y="140" width="160" height="26" as="alternateBounds" />
          </mxGeometry>
        </mxCell>
        <mxCell id="nw4yl1-feg41qcsiGpT8-207" value="task: URLSessionDownloadTask?" style="text;align=left;verticalAlign=top;spacingLeft=4;spacingRight=4;overflow=hidden;rotatable=0;points=[[0,0.5],[1,0.5]];portConstraint=eastwest;" vertex="1" parent="nw4yl1-feg41qcsiGpT8-205">
          <mxGeometry y="26" width="203" height="26" as="geometry" />
        </mxCell>
        <mxCell id="nw4yl1-feg41qcsiGpT8-209" value="" style="line;html=1;strokeWidth=1;align=left;verticalAlign=middle;spacingTop=-1;spacingLeft=3;spacingRight=3;rotatable=0;labelPosition=right;points=[];portConstraint=eastwest;" vertex="1" parent="nw4yl1-feg41qcsiGpT8-205">
          <mxGeometry y="52" width="203" height="8" as="geometry" />
        </mxCell>
        <mxCell id="nw4yl1-feg41qcsiGpT8-213" value="OperationDownloadTask" style="swimlane;fontStyle=0;align=center;verticalAlign=top;childLayout=stackLayout;horizontal=1;startSize=26;horizontalStack=0;resizeParent=1;resizeLast=0;collapsible=1;marginBottom=0;rounded=0;shadow=0;strokeWidth=1;" vertex="1" parent="WIyWlLk6GJQsqaUBKTNV-1">
          <mxGeometry x="-503" y="360" width="170" height="190" as="geometry">
            <mxRectangle x="230" y="140" width="160" height="26" as="alternateBounds" />
          </mxGeometry>
        </mxCell>
        <mxCell id="nw4yl1-feg41qcsiGpT8-214" value="task: Operation?" style="text;align=left;verticalAlign=top;spacingLeft=4;spacingRight=4;overflow=hidden;rotatable=0;points=[[0,0.5],[1,0.5]];portConstraint=eastwest;rounded=0;shadow=0;html=0;" vertex="1" parent="nw4yl1-feg41qcsiGpT8-213">
          <mxGeometry y="26" width="170" height="26" as="geometry" />
        </mxCell>
        <mxCell id="nw4yl1-feg41qcsiGpT8-217" value="" style="line;html=1;strokeWidth=1;align=left;verticalAlign=middle;spacingTop=-1;spacingLeft=3;spacingRight=3;rotatable=0;labelPosition=right;points=[];portConstraint=eastwest;" vertex="1" parent="nw4yl1-feg41qcsiGpT8-213">
          <mxGeometry y="52" width="170" height="8" as="geometry" />
        </mxCell>
        <mxCell id="nw4yl1-feg41qcsiGpT8-222" style="edgeStyle=orthogonalEdgeStyle;rounded=0;orthogonalLoop=1;jettySize=auto;html=1;entryX=0.458;entryY=1;entryDx=0;entryDy=0;entryPerimeter=0;endArrow=block;endFill=0;" edge="1" parent="WIyWlLk6GJQsqaUBKTNV-1" source="nw4yl1-feg41qcsiGpT8-205" target="nw4yl1-feg41qcsiGpT8-111">
          <mxGeometry relative="1" as="geometry" />
        </mxCell>
        <mxCell id="nw4yl1-feg41qcsiGpT8-223" style="edgeStyle=orthogonalEdgeStyle;rounded=0;orthogonalLoop=1;jettySize=auto;html=1;entryX=0.434;entryY=1.007;entryDx=0;entryDy=0;entryPerimeter=0;endArrow=block;endFill=0;" edge="1" parent="WIyWlLk6GJQsqaUBKTNV-1" source="nw4yl1-feg41qcsiGpT8-213" target="nw4yl1-feg41qcsiGpT8-111">
          <mxGeometry relative="1" as="geometry" />
        </mxCell>
        <mxCell id="nw4yl1-feg41qcsiGpT8-225" style="edgeStyle=orthogonalEdgeStyle;rounded=0;orthogonalLoop=1;jettySize=auto;html=1;entryX=0.999;entryY=0.209;entryDx=0;entryDy=0;entryPerimeter=0;exitX=0.5;exitY=0;exitDx=0;exitDy=0;dashed=1;dashPattern=8 8;endArrow=block;endFill=0;" edge="1" parent="WIyWlLk6GJQsqaUBKTNV-1" source="zkfFHV4jXpPFQw0GAbJ--0" target="nw4yl1-feg41qcsiGpT8-171">
          <mxGeometry relative="1" as="geometry" />
        </mxCell>
        <mxCell id="nw4yl1-feg41qcsiGpT8-236" value="Singleton?" style="rounded=1;whiteSpace=wrap;html=1;" vertex="1" parent="WIyWlLk6GJQsqaUBKTNV-1">
          <mxGeometry x="630" y="50" width="160" height="60" as="geometry" />
        </mxCell>
        <mxCell id="nw4yl1-feg41qcsiGpT8-240" value="data가 더 적합?&lt;div&gt;metadata&lt;/div&gt;" style="rounded=1;whiteSpace=wrap;html=1;" vertex="1" parent="WIyWlLk6GJQsqaUBKTNV-1">
          <mxGeometry x="-540" y="820" width="160" height="60" as="geometry" />
        </mxCell>
        <mxCell id="nw4yl1-feg41qcsiGpT8-241" value="다운로드 파일 사이즈를 모를때는?" style="rounded=1;whiteSpace=wrap;html=1;" vertex="1" parent="WIyWlLk6GJQsqaUBKTNV-1">
          <mxGeometry x="630" y="-77" width="160" height="60" as="geometry" />
        </mxCell>
        <mxCell id="nw4yl1-feg41qcsiGpT8-242" value="download url 받기 보다는 request 받기&lt;div&gt;왜?&lt;/div&gt;&lt;div&gt;url은 url만 있음..&lt;/div&gt;&lt;div&gt;request - header에 권한 등 추가 정보 넣을 수 있음.&lt;/div&gt;&lt;div&gt;로그인 쿠키&lt;/div&gt;&lt;div&gt;url만 있으면 다운로드 제한적임&lt;/div&gt;" style="rounded=1;whiteSpace=wrap;html=1;" vertex="1" parent="WIyWlLk6GJQsqaUBKTNV-1">
          <mxGeometry x="550" y="640" width="160" height="120" as="geometry" />
        </mxCell>
        <mxCell id="nw4yl1-feg41qcsiGpT8-243" value="와이파이 &amp;lt;→ LTE 일때 에러" style="rounded=1;whiteSpace=wrap;html=1;" vertex="1" parent="WIyWlLk6GJQsqaUBKTNV-1">
          <mxGeometry x="40" y="1090" width="160" height="120" as="geometry" />
        </mxCell>
        <mxCell id="nw4yl1-feg41qcsiGpT8-249" value="이어받기 할 수 있는 url, 없는 url이 있음" style="rounded=1;whiteSpace=wrap;html=1;" vertex="1" parent="WIyWlLk6GJQsqaUBKTNV-1">
          <mxGeometry x="210" y="890" width="160" height="120" as="geometry" />
        </mxCell>
        <mxCell id="nw4yl1-feg41qcsiGpT8-250" value="멀티 다운로드 몇개까지 될지&lt;div&gt;설정한 대로 안될거임~&lt;/div&gt;" style="rounded=1;whiteSpace=wrap;html=1;" vertex="1" parent="WIyWlLk6GJQsqaUBKTNV-1">
          <mxGeometry x="1230" y="120" width="170" height="60" as="geometry" />
        </mxCell>
      </root>
    </mxGraphModel>
  </diagram>
</mxfile>
